<?xml version="1.0" encoding="UTF-8"?><svg id="Layer_1" xmlns="http://www.w3.org/2000/svg" xmlns:xlink="http://www.w3.org/1999/xlink" viewBox="0 0 857.46 226.75"><defs><clipPath id="clippath"><path d="m152.78,78.13c10.08,12.08,16.89,26.99,19.12,43.35,5.28-21.15,24.38-36.79,47.15-36.79,17.94,0,33.64,9.73,42.03,24.22,2,3.41,3.57,7.12,4.66,10.99.79,2.74,1.35,5.56,1.64,8.45V61.88c-.54-.39-1.08-.75-1.64-1.11-1.52-.98-3.07-1.89-4.66-2.76-12.43-6.98-26.77-10.95-42.03-10.95-26.62,0-50.44,12.08-66.25,31.06" fill="none"/></clipPath><linearGradient id="linear-gradient" x1="242.72" y1="-156.36" x2="249.37" y2="-156.36" gradientTransform="translate(-3993.35 2759.9) scale(17.09)" gradientUnits="userSpaceOnUse"><stop offset="0" stop-color="#40a3bc"/><stop offset=".03" stop-color="#40a3bc"/><stop offset=".06" stop-color="#44a7be"/><stop offset=".2" stop-color="#56b6c9"/><stop offset=".35" stop-color="#61c0cf"/><stop offset=".52" stop-color="#65c3d2"/><stop offset=".77" stop-color="#63c1d0"/><stop offset=".87" stop-color="#5cbbcc"/><stop offset=".93" stop-color="#50b1c5"/><stop offset=".99" stop-color="#40a3bc"/><stop offset="1" stop-color="#40a3bc"/></linearGradient><clipPath id="clippath-1"><path d="m42.07,112.92c-2.88,6.19-4.46,13.08-4.46,20.35,0,6.08,1.12,11.91,3.17,17.28h90.81c2.05-5.36,3.15-11.2,3.15-17.28,0-7.27-1.59-14.15-4.45-20.35H42.07h0Z" fill="none"/></clipPath><linearGradient id="linear-gradient-2" x1="232.42" y1="-147.78" x2="239.07" y2="-147.78" gradientTransform="translate(-3359.85 2292.28) scale(14.62)" gradientUnits="userSpaceOnUse"><stop offset="0" stop-color="#40a3bc"/><stop offset="1" stop-color="#65c3d2"/></linearGradient></defs><path d="m305.22.97v132.28c0,2.41-.08,4.8-.29,7.16-3.62,44.24-40.71,79.04-85.89,79.04-26.65,0-50.46-12.11-66.25-31.07-.06-.07-.12-.14-.17-.21-10.01-12.04-16.77-26.84-18.98-43.14-.04-.3-.07-.59-.11-.9-.47-3.54-.69-7.17-.69-10.85s.21-7.23.68-10.75v-.11c.01-.29.07-.57.1-.84,2.2-16.31,8.98-31.14,18.99-43.21.04-.07.11-.14.17-.21,10.06,12.08,16.88,27.01,19.1,43.36-.08.3-.14.59-.21.9-.8,3.51-1.22,7.15-1.22,10.88s.43,7.37,1.22,10.85c.07.3.14.59.21.9,5.27,21.15,24.38,36.81,47.15,36.81,18.77,0,35.05-10.63,43.13-26.23,2.43-4.66,4.13-9.77,4.91-15.18.12-.76.22-1.49.3-2.28.15-1.6.25-3.25.25-4.88s-.1-3.29-.25-4.91V25.88c0-13.73,10.67-24.88,23.86-24.88h13.99v-.03Z" fill="#65c3d2"/><g clip-path="url(#clippath)" fill="none"><rect x="152.78" y="47.07" width="114.59" height="81.26" fill="url(#linear-gradient)"/></g><g clip-path="url(#clippath-1)" fill="none"><rect x="37.61" y="112.92" width="97.14" height="37.61" fill="url(#linear-gradient-2)"/></g><path d="m171.67,122.38c-.03-.3-.06-.59-.11-.9-2.23-16.25-8.97-31.1-18.95-43.14-.04-.08-.11-.14-.17-.22-15.8-18.98-39.63-31.06-66.28-31.06C38.58,47.07,0,85.64,0,133.26s38.58,86.18,86.17,86.18c26.65,0,50.48-12.09,66.28-31.07.07-.07.12-.14.17-.21,9.97-12.04,16.72-26.84,18.95-43.14.04-.3.07-.59.11-.9-.8-3.5-1.22-7.1-1.22-10.85s.43-7.37,1.22-10.88m-38.2,22c-.04.21-.11.41-.15.62-.12.47-.25.93-.39,1.41-.14.5-.28.98-.44,1.47-.1.33-.21.68-.32,1.01-.18.55-.39,1.11-.58,1.63-6.98,18.31-24.69,31.29-45.43,31.29s-38.41-12.98-45.39-31.29c-2.05-5.36-3.17-11.2-3.17-17.28,0-7.27,1.59-14.14,4.46-20.33,7.66-16.68,24.52-28.24,44.08-28.24s36.45,11.56,44.12,28.24c.33.69.62,1.37.9,2.09.03.08.08.17.11.26.22.51.4,1.04.59,1.58.06.18.12.36.18.55.47,1.37.87,2.74,1.2,4.15.07.32.15.62.22.95.36,1.58.66,3.17.87,4.8.06.48.11.98.15,1.48.04.39.08.77.1,1.16,0,.19.03.4.04.62.04.88.07,1.8.07,2.71,0,.51,0,1.01-.03,1.52,0,.4,0,.77-.04,1.17-.03.61-.08,1.22-.14,1.82-.06.65-.12,1.27-.21,1.89,0,.19-.04.4-.07.59-.08.57-.17,1.12-.28,1.67-.03.14-.04.29-.1.43-.1.59-.21,1.19-.35,1.76,0,.1-.04.18-.06.28" fill="#65c3d2"/><path d="m358.62,91.45V28.89c0-9.93,2.74-17.07,8.23-21.41,5.49-4.34,12.05-6.51,19.68-6.51,15.43.09,30.53.69,45.3,1.77,3.11.23,5.51,2.84,5.51,5.97v11.4c0,3.28-2.67,5.97-5.97,5.97h-36.69c-2.83,0-5.02.67-6.59,2.04-1.57,1.36-2.35,3.4-2.35,6.11v12.86l35.21,1.26c4.85.17,8.69,4.15,8.69,9.02v12.62l-43.9,1.41v12.23c0,3.14.76,5.47,2.28,6.98,1.51,1.53,3.47,2.28,5.88,2.28h43.43v22.73c-12.54,1.57-28.9,2.45-49.08,2.65-19.77,0-29.64-8.93-29.64-26.82" fill="#2072b9"/><path d="m469.26,117.15c-6.54-.73-12.37-1.77-17.48-3.14v-21.48c9.92.94,21.79,1.41,35.59,1.41,5.85,0,10.19-.71,13.02-2.11,2.83-1.41,4.24-3.95,4.24-7.61v-2.98c0-2.71-.88-4.82-2.65-6.35-1.78-1.51-4.12-2.27-7.06-2.27h-9.09c-12.03,0-20.99-2.64-26.9-7.92-5.91-5.28-8.86-13.83-8.86-25.65v-5.49c0-11.29,3.3-19.71,9.88-25.25,6.59-5.54,16.26-8.32,29.01-8.32,4.14,0,14.64.21,19.05.63,12.97,1.23,22.35,15.47,16.71,31.98-14.8-8.16-25.35-8.31-32.47-8.31-5.54,0-9.68.76-12.39,2.27-2.71,1.53-4.07,4.31-4.07,8.39v2.2c0,6.48,3.91,9.72,11.76,9.72h10.82c10.35,0,18.27,2.83,23.75,8.46,5.49,5.65,8.23,13.07,8.23,22.28v5.81c0,9.3-1.64,16.48-4.94,21.56-3.3,5.07-7.92,8.55-13.89,10.43s-13.54,2.83-22.73,2.83c-6.48,0-12.99-.37-19.52-1.1" fill="#2072b9"/><path d="m560.34.96h0c4.75,0,9.16,2.43,11.7,6.44l40.46,63.96V14.06c0-7.25,5.88-13.12,13.12-13.12h14.01v116.35h-21.65l-44.53-70.26v70.26h-26.97V14.8c0-7.65,6.19-13.86,13.86-13.86" fill="#2072b9"/><path d="m702.37.96h0c10.08,0,18.94,6.58,21.88,16.2l30.5,100.17h-28.07l-5.97-21.16h-37.01l-5.81,21.16h-27.91l30.5-100.17c2.93-9.62,11.8-16.2,21.86-16.2m12.07,70.89l-12.23-47.67-12.22,47.67h24.46-.01Z" fill="#2072b9"/><path d="m765.72,19.28c0-10.12,8.21-18.32,18.32-18.32h32.01c15.26,0,25.97,5.09,32.15,15.28,6.17,10.19,9.25,24.55,9.25,43.04,0,19.85-3.4,34.49-10.19,43.9s-17.2,14.11-31.21,14.11h-50.34V19.25v.03Zm47.68,73.73c6.27,0,10.69-2.67,13.26-7.99,2.55-5.32,3.84-13.9,3.84-25.72,0-9.3-.66-16.43-1.96-21.32-1.31-4.92-3.17-8.26-5.57-10.05-2.41-1.77-5.59-2.65-9.56-2.65h-20.54v67.75h20.54-.01Z" fill="#2072b9"/><path d="m364.15,175.44c-1.72,0-3.57-1.33-3.57-3.91v-25.54h2.67c1.5,0,3.14,1.25,3.14,3.14v26.32h-2.24Z" fill="#888a8d"/><path d="m404.44,175.44c-3.14,0-4.39-1.46-4.39-4.21v-8.94c0-3.83-1.72-5.46-4.26-5.46-2.32,0-3.91,1.63-3.91,4.82v13.8h-1.55c-2.54,0-4.21-1.46-4.21-4.21v-8.94c0-3.83-1.76-5.46-4.3-5.46-2.24,0-3.91,1.76-3.91,4.95v13.67h-1.55c-2.36,0-4.17-1.55-4.17-4.21v-8.99c0-6.32,3.31-10.53,10.32-10.53,3.01,0,5.38,1.38,7.05,3.61,1.33-2.15,3.87-3.61,6.67-3.61,5.33,0,9.63,3.22,9.63,9.8v13.93h-1.42Z" fill="#888a8d"/><path d="m423.15,175.96c-2.58,0-4.69-1.46-5.85-3.44v10.23h-1.81c-2.06,0-4.04-1.5-4.04-4v-14.02c0-7.7,3.44-13.03,11.61-13.03,6.15,0,10.53,5.59,10.53,11.44,0,7.44-3.7,12.81-10.45,12.81Zm-.99-19.13c-3.18,0-4.95,2.75-4.95,6.75,0,4.64,2.28,7.27,5.72,7.27,2.79,0,4.73-2.49,4.73-6.19,0-5.46-1.81-7.83-5.5-7.83Z" fill="#888a8d"/><path d="m448.52,151.71c6.97,0,10.96,5.59,10.96,11.74,0,6.97-4,12.51-11.48,12.51-6.97,0-10.96-5.55-10.96-11.7,0-6.97,4-12.56,11.48-12.56Zm-.52,5.16c-3.31,0-4.99,2.75-4.99,6.58,0,4.6,1.68,7.35,5.5,7.35,3.35,0,4.99-2.75,4.99-6.54,0-4.64-1.72-7.4-5.5-7.4Z" fill="#888a8d"/><path d="m477.16,157.86c-.86-.34-1.85-.69-3.35-.69-2.58,0-4,1.42-4,4.94v13.33h-1.59c-2.58,0-4.21-1.29-4.21-3.7v-10.66c0-4.64,2.45-9.07,8.56-9.07,3.57,0,4.82,2.02,4.82,3.78v2.06h-.22Z" fill="#888a8d"/><path d="m482.49,148.57c.77-.9,1.81-1.59,2.71-1.59h1.33v5.25h8.04v2.37c0,1.2-1.07,2.75-3.44,2.75h-4.6v9.07c0,3.01,1.33,4.17,3.65,4.17,1.85,0,3.27-.26,4.17-.82h.21v2.06c0,2.37-1.72,3.87-5.07,3.87-5.85,0-8.69-3.18-8.69-8.6v-13.93c0-2.28.43-3.14,1.68-4.6Z" fill="#888a8d"/><path d="m507.43,175.83h-1.16c-5.5,0-9.29-3.1-9.29-7.35s3.01-7.27,11.52-7.27h2.02v-.3c0-3.27-1.55-4.26-4.99-4.26-4.17,0-6.49,1.59-7.35,2.67h-.21v-1.85c0-2.58,2.32-5.68,8.43-5.68,5.16,0,9.8,2.41,9.8,10.41v5.33c0,4.9-3.61,8.3-8.77,8.3Zm3.14-10.49h-2.06c-4.39,0-5.63,1.03-5.63,2.92s1.46,2.88,4,2.88,3.7-1.2,3.7-3.57v-2.24Z" fill="#888a8d"/><path d="m522.65,148.57c.77-.9,1.81-1.59,2.71-1.59h1.33v5.25h8.04v2.37c0,1.2-1.07,2.75-3.44,2.75h-4.6v9.07c0,3.01,1.33,4.17,3.65,4.17,1.85,0,3.27-.26,4.17-.82h.21v2.06c0,2.37-1.72,3.87-5.07,3.87-5.85,0-8.69-3.18-8.69-8.6v-13.93c0-2.28.43-3.14,1.68-4.6Z" fill="#888a8d"/><path d="m541.75,150.59c-1.85,0-3.35-1.55-3.35-3.4s1.51-3.35,3.35-3.35,3.4,1.5,3.4,3.35-1.55,3.4-3.4,3.4Zm4.08,25.07c-4.47,0-6.92-2.54-6.92-7.22v-15.7h1.63c2.58,0,4.13,1.38,4.13,4.3v10.84c0,2.32.99,3.05,3.53,3.05h1.07v1.25c0,2.49-.99,3.48-3.44,3.48Z" fill="#888a8d"/><path d="m562.9,151.71c6.97,0,10.96,5.59,10.96,11.74,0,6.97-4,12.51-11.48,12.51-6.97,0-10.96-5.55-10.96-11.7,0-6.97,4-12.56,11.48-12.56Zm-.52,5.16c-3.31,0-4.99,2.75-4.99,6.58,0,4.6,1.68,7.35,5.5,7.35,3.35,0,4.99-2.75,4.99-6.54,0-4.64-1.72-7.4-5.5-7.4Z" fill="#888a8d"/><path d="m597.26,175.44c-2.58,0-4.21-1.63-4.21-3.78v-9.2c0-3.91-1.72-5.63-4.69-5.63-2.49,0-4.21,1.89-4.21,5.2v13.42h-1.72c-2.45,0-4.04-1.63-4.04-3.78v-10.02c0-4.9,3.23-9.93,10.45-9.93,5.46,0,9.98,3.65,9.98,10.23v13.5h-1.55Z" fill="#888a8d"/><path d="m626.41,175.96c-7.44,0-13.46-5.98-13.46-14.79s5.16-15.7,14.1-15.7c7.14,0,13.46,5.46,13.46,14.79s-5.12,15.69-14.1,15.69Zm.09-25.28c-4.34,0-7.48,3.57-7.48,9.59,0,7.09,2.58,10.58,7.96,10.58,4.56,0,7.48-3.27,7.48-9.76,0-6.92-2.97-10.41-7.96-10.41Z" fill="#888a8d"/><path d="m658.41,149.64c-.9-.3-1.93-.52-3.35-.52-2.37,0-4.13.82-4.13,3.91v2.06h6.62v1.59c0,2.06-2.19,3.27-4.13,3.27h-2.49v15.48h-2.32c-1.85,0-3.48-1.42-3.48-3.44v-19.44c0-3.27,2.28-8.51,9.03-8.51,2.49,0,4.43,1.38,4.43,3.66v1.93h-.17Z" fill="#888a8d"/><path d="m701.88,175.44c-2.24,0-3.78-1.25-3.78-3.91,0-3.74-.65-14.53-1.12-17.46-.39.95-.95,2.15-1.38,3.48l-4.13,12.64c-.69,2.11-1.59,4.08-2.41,5.25h-1.59c-1.94,0-3.66-1.5-4.73-4.69l-4.21-12.43c-.52-1.51-1.2-3.27-1.63-4.3-.77,4.21-1.29,16.04-1.29,21.41h-2.06c-2.19,0-3.7-1.42-3.7-3.91,0-6.58,1.29-19.69,2.37-25.54h1.25c4.08,0,6.97,1.85,8.08,4.99l4.08,11.52c.9,2.49,1.42,4.26,1.68,5.59.22-1.12.52-2.02.82-3.01l3.4-10.45c1.5-4.69,3.4-7.65,4.6-8.64h.69c3.27,0,5.42,2.06,5.89,6.11.56,4.64,1.42,17.46,1.42,23.35h-2.24Z" fill="#888a8d"/><path d="m717.92,166.33h-3.78c.43,2.92,3.1,4.77,6.49,4.77,2.41,0,5.25-.47,7.09-2.19h.21v1.81c0,2.97-2.02,5.25-8.38,5.25-5.76,0-11.39-4.56-11.39-11.65,0-7.74,4.73-12.6,11.35-12.6,4.82,0,9.29,3.44,9.29,8.99,0,4.26-3.23,5.63-10.88,5.63Zm1.07-9.8c-2.79,0-4.73,2.28-4.86,4.95l-.04.77h2.58c5.46,0,6.71-.6,6.71-2.24,0-2.32-1.72-3.48-4.39-3.48Z" fill="#888a8d"/><path d="m742.95,175.96c-6.11,0-10.79-5.33-10.79-11.7,0-7.61,3.7-12.56,10.45-12.56,2.32,0,4.86,1.63,5.76,3.65v-10.88h1.76c2.75,0,3.96,1.59,3.96,3.91v16.34c0,6.75-3.18,11.22-11.14,11.22Zm-.3-19.39c-2.92,0-4.82,2.84-4.82,6.58,0,4.82,2.49,7.96,5.8,7.96s4.64-2.41,4.64-6.62c0-5.8-2.54-7.91-5.63-7.91Z" fill="#888a8d"/><path d="m763.24,150.59c-1.85,0-3.35-1.55-3.35-3.4s1.51-3.35,3.35-3.35,3.4,1.5,3.4,3.35-1.55,3.4-3.4,3.4Zm4.08,25.07c-4.47,0-6.92-2.54-6.92-7.22v-15.7h1.63c2.58,0,4.13,1.38,4.13,4.3v10.84c0,2.32.99,3.05,3.53,3.05h1.07v1.25c0,2.49-.99,3.48-3.44,3.48Z" fill="#888a8d"/><path d="m791.54,159.71c-.77-1.33-2.97-2.41-6.28-2.41s-6.32,2.71-6.32,6.15c0,4.21,2.49,7.09,6.41,7.09,3.31,0,5.29-1.07,6.11-2.15h.22v2.67c0,2.79-2.71,4.82-6.88,4.82-6.36,0-11.87-4.94-11.87-11.57s4.6-12.3,12.51-12.3c3.7,0,6.32,2.24,6.32,4.99v2.71h-.21Z" fill="#888a8d"/><path d="m799.49,150.59c-1.85,0-3.35-1.55-3.35-3.4s1.51-3.35,3.35-3.35,3.4,1.5,3.4,3.35-1.55,3.4-3.4,3.4Zm4.08,25.07c-4.47,0-6.92-2.54-6.92-7.22v-15.7h1.63c2.58,0,4.13,1.38,4.13,4.3v10.84c0,2.32.99,3.05,3.53,3.05h1.07v1.25c0,2.49-.99,3.48-3.44,3.48Z" fill="#888a8d"/><path d="m829.12,175.44c-2.58,0-4.21-1.63-4.21-3.78v-9.2c0-3.91-1.72-5.63-4.69-5.63-2.49,0-4.21,1.89-4.21,5.2v13.42h-1.72c-2.45,0-4.04-1.63-4.04-3.78v-10.02c0-4.9,3.23-9.93,10.45-9.93,5.46,0,9.98,3.65,9.98,10.23v13.5h-1.55Z" fill="#888a8d"/><path d="m844.94,166.33h-3.78c.43,2.92,3.1,4.77,6.49,4.77,2.41,0,5.25-.47,7.09-2.19h.21v1.81c0,2.97-2.02,5.25-8.38,5.25-5.76,0-11.4-4.56-11.4-11.65,0-7.74,4.73-12.6,11.35-12.6,4.82,0,9.29,3.44,9.29,8.99,0,4.26-3.22,5.63-10.88,5.63Zm1.07-9.8c-2.79,0-4.73,2.28-4.86,4.95l-.04.77h2.58c5.46,0,6.71-.6,6.71-2.24,0-2.32-1.72-3.48-4.39-3.48Z" fill="#888a8d"/><path d="m443.68,219.44c-2.24,0-3.78-1.25-3.78-3.91,0-3.74-.65-14.53-1.12-17.46-.39.95-.95,2.15-1.38,3.48l-4.13,12.64c-.69,2.11-1.59,4.08-2.41,5.25h-1.59c-1.94,0-3.66-1.5-4.73-4.69l-4.21-12.43c-.52-1.51-1.2-3.27-1.63-4.3-.77,4.21-1.29,16.04-1.29,21.41h-2.06c-2.19,0-3.7-1.42-3.7-3.91,0-6.58,1.29-19.69,2.37-25.54h1.25c4.08,0,6.97,1.85,8.08,4.99l4.08,11.52c.9,2.49,1.42,4.26,1.68,5.59.21-1.12.52-2.02.82-3.01l3.4-10.45c1.5-4.69,3.4-7.65,4.6-8.64h.69c3.27,0,5.42,2.06,5.89,6.11.56,4.64,1.42,17.46,1.42,23.35h-2.24Z" fill="#888a8d"/><path d="m459.72,210.33h-3.78c.43,2.92,3.1,4.77,6.49,4.77,2.41,0,5.25-.47,7.09-2.19h.21v1.81c0,2.97-2.02,5.25-8.38,5.25-5.76,0-11.4-4.56-11.4-11.65,0-7.74,4.73-12.6,11.35-12.6,4.82,0,9.29,3.44,9.29,8.99,0,4.26-3.22,5.63-10.88,5.63Zm1.07-9.8c-2.79,0-4.73,2.28-4.86,4.95l-.04.77h2.58c5.46,0,6.71-.6,6.71-2.24,0-2.32-1.72-3.48-4.39-3.48Z" fill="#888a8d"/><path d="m484.75,219.96c-6.11,0-10.79-5.33-10.79-11.7,0-7.61,3.7-12.56,10.45-12.56,2.32,0,4.86,1.63,5.76,3.65v-10.88h1.76c2.75,0,3.96,1.59,3.96,3.91v16.34c0,6.75-3.18,11.22-11.14,11.22Zm-.3-19.39c-2.92,0-4.82,2.84-4.82,6.58,0,4.82,2.49,7.96,5.8,7.96s4.64-2.41,4.64-6.62c0-5.8-2.54-7.91-5.63-7.91Z" fill="#888a8d"/><path d="m505.04,194.59c-1.85,0-3.35-1.55-3.35-3.4s1.51-3.35,3.35-3.35,3.4,1.5,3.4,3.35-1.55,3.4-3.4,3.4Zm4.08,25.07c-4.47,0-6.92-2.54-6.92-7.22v-15.7h1.63c2.58,0,4.13,1.38,4.13,4.3v10.84c0,2.32.99,3.05,3.53,3.05h1.07v1.25c0,2.49-.99,3.48-3.44,3.48Z" fill="#888a8d"/><path d="m533.34,203.71c-.77-1.33-2.97-2.41-6.28-2.41s-6.32,2.71-6.32,6.15c0,4.21,2.49,7.09,6.41,7.09,3.31,0,5.29-1.07,6.11-2.15h.22v2.67c0,2.79-2.71,4.82-6.88,4.82-6.36,0-11.87-4.94-11.87-11.57s4.6-12.3,12.51-12.3c3.7,0,6.32,2.24,6.32,4.99v2.71h-.21Z" fill="#888a8d"/><path d="m547.14,219.83h-1.16c-5.5,0-9.29-3.1-9.29-7.35s3.01-7.27,11.52-7.27h2.02v-.3c0-3.27-1.55-4.26-4.99-4.26-4.17,0-6.49,1.59-7.35,2.67h-.21v-1.85c0-2.58,2.32-5.68,8.43-5.68,5.16,0,9.8,2.41,9.8,10.41v5.33c0,4.9-3.61,8.3-8.77,8.3Zm3.14-10.49h-2.06c-4.39,0-5.63,1.03-5.63,2.92s1.46,2.88,4,2.88,3.7-1.2,3.7-3.57v-2.24Z" fill="#888a8d"/><path d="m568.04,219.66c-4.77,0-7.35-2.54-7.35-7.22v-23.95h1.63c2.88,0,4.13,1.68,4.13,3.87v19.52c0,2.32,1.2,3.05,3.91,3.05h1.55v1.25c0,2.49-1.33,3.48-3.87,3.48Z" fill="#888a8d"/><path d="m604.33,216c-.04,2.37-1.25,3.66-6.41,3.66h-3.14c-7.18,0-10.96-3.96-10.96-11.48v-5.46c0-2.79.21-5.93.56-8.3.47-3.53,2.11-4.43,4.51-4.43h15.39v1.98c0,2.06-1.25,3.1-3.96,3.1h-10.1c-.3,2.15-.43,5.03-.43,6.88h11.35v2.11c0,1.93-1.2,2.71-3.57,2.71h-7.78v1.72c0,5.12,1.68,6.11,6.24,6.11h1.89c2.15,0,4.34-.17,6.45-.64l-.04,2.06Z" fill="#888a8d"/><path d="m629.14,207.4v19.35l-1.89-.04c-2.41-.04-3.83-1.2-3.83-3.83v-5.93c-.95,1.89-3.31,3.01-5.63,3.01-5.8,0-10.75-4.6-10.75-11.44,0-7.31,4.73-12.81,11.78-12.81,6.66,0,10.32,4.43,10.32,11.7Zm-16.34.09c0,4.77,2.02,7.35,5.59,7.35,3.23,0,5.03-1.94,5.03-6.75s-1.85-7.27-5.33-7.27c-2.62,0-5.29,2.45-5.29,6.67Z" fill="#888a8d"/><path d="m644.97,219.96c-5.72,0-10.23-3.78-10.23-10.53v-13.2h1.08c3.31,0,4.77,1.42,4.77,4.13v8.51c0,4.26,2.06,5.98,4.69,5.98,2.37,0,4.04-1.63,4.04-5.59v-13.03h1.03c3.35,0,4.77,1.42,4.77,4.13v8.69c0,7.22-3.4,10.92-10.15,10.92Z" fill="#888a8d"/><path d="m664.28,194.59c-1.85,0-3.35-1.55-3.35-3.4s1.51-3.35,3.35-3.35,3.4,1.5,3.4,3.35-1.55,3.4-3.4,3.4Zm4.08,25.07c-4.47,0-6.92-2.54-6.92-7.22v-15.7h1.63c2.58,0,4.13,1.38,4.13,4.3v10.84c0,2.32.99,3.05,3.53,3.05h1.07v1.25c0,2.49-.99,3.48-3.44,3.48Z" fill="#888a8d"/><path d="m686.72,219.96c-2.58,0-4.69-1.46-5.85-3.44v10.23h-1.81c-2.06,0-4.04-1.5-4.04-4v-14.02c0-7.7,3.44-13.03,11.61-13.03,6.15,0,10.53,5.59,10.53,11.44,0,7.44-3.7,12.81-10.45,12.81Zm-.99-19.13c-3.18,0-4.95,2.75-4.95,6.75,0,4.64,2.28,7.27,5.72,7.27,2.79,0,4.73-2.49,4.73-6.19,0-5.46-1.81-7.83-5.5-7.83Z" fill="#888a8d"/><path d="m733.98,219.44c-3.14,0-4.39-1.46-4.39-4.21v-8.94c0-3.83-1.72-5.46-4.26-5.46-2.32,0-3.91,1.63-3.91,4.82v13.8h-1.55c-2.54,0-4.21-1.46-4.21-4.21v-8.94c0-3.83-1.76-5.46-4.3-5.46-2.24,0-3.91,1.76-3.91,4.95v13.67h-1.55c-2.36,0-4.17-1.55-4.17-4.21v-8.99c0-6.32,3.31-10.53,10.32-10.53,3.01,0,5.38,1.38,7.05,3.61,1.33-2.15,3.87-3.61,6.67-3.61,5.33,0,9.63,3.22,9.63,9.8v13.93h-1.42Z" fill="#888a8d"/><path d="m749.68,210.33h-3.78c.43,2.92,3.1,4.77,6.49,4.77,2.41,0,5.25-.47,7.09-2.19h.21v1.81c0,2.97-2.02,5.25-8.38,5.25-5.76,0-11.4-4.56-11.4-11.65,0-7.74,4.73-12.6,11.35-12.6,4.82,0,9.29,3.44,9.29,8.99,0,4.26-3.22,5.63-10.88,5.63Zm1.07-9.8c-2.79,0-4.73,2.28-4.86,4.95l-.04.77h2.58c5.46,0,6.71-.6,6.71-2.24,0-2.32-1.72-3.48-4.39-3.48Z" fill="#888a8d"/><path d="m783.86,219.44c-2.58,0-4.21-1.63-4.21-3.78v-9.2c0-3.91-1.72-5.63-4.69-5.63-2.49,0-4.21,1.89-4.21,5.2v13.42h-1.72c-2.45,0-4.04-1.63-4.04-3.78v-10.02c0-4.9,3.23-9.93,10.45-9.93,5.46,0,9.98,3.65,9.98,10.23v13.5h-1.55Z" fill="#888a8d"/><path d="m792.89,192.57c.77-.9,1.81-1.59,2.71-1.59h1.33v5.25h8.04v2.37c0,1.2-1.07,2.75-3.44,2.75h-4.6v9.07c0,3.01,1.33,4.17,3.65,4.17,1.85,0,3.27-.26,4.17-.82h.21v2.06c0,2.37-1.72,3.87-5.07,3.87-5.85,0-8.69-3.18-8.69-8.6v-13.93c0-2.28.43-3.14,1.68-4.6Z" fill="#888a8d"/></svg>